HIERARCHY
ROOT hips_JNT
{
	OFFSET 0.000000 0.000000 0.000000
	CHANNELS 6 Xposition Yposition Zposition Zrotation Xrotation Yrotation
	JOINT spine_JNT
	{
		OFFSET -0.000424 -2.543419 9.319810
		CHANNELS 6 Xposition Yposition Zposition Zrotation Xrotation Yrotation
		JOINT spine1_JNT
		{
			OFFSET 0.000000 0.000046 10.873099
			CHANNELS 6 Xposition Yposition Zposition Zrotation Xrotation Yrotation
			JOINT spine2_JNT
			{
				OFFSET 0.000000 5.951161 12.426399
				CHANNELS 6 Xposition Yposition Zposition Zrotation Xrotation Yrotation
				JOINT neck_JNT
				{
					OFFSET 0.000000 1.460481 13.979698
					CHANNELS 6 Xposition Yposition Zposition Zrotation Xrotation Yrotation
					JOINT head_JNT
					{
						OFFSET 0.000000 -2.091499 5.870201
						CHANNELS 6 Xposition Yposition Zposition Zrotation Xrotation Yrotation
						End Site
						{
							OFFSET 0.000000 0.000000 0.099998
						}
					}
				}
				JOINT l_shoulder_JNT
				{
					OFFSET 4.399140 1.485011 12.861000
					CHANNELS 6 Xposition Yposition Zposition Zrotation Xrotation Yrotation
					JOINT l_arm_JNT
					{
						OFFSET 8.757349 0.049052 -2.311981
						CHANNELS 6 Xposition Yposition Zposition Zrotation Xrotation Yrotation
						JOINT l_forearm_JNT
						{
							OFFSET 26.900103 -0.000013 -0.000046
							CHANNELS 6 Xposition Yposition Zposition Zrotation Xrotation Yrotation
							JOINT l_hand_JNT
							{
								OFFSET 23.014801 0.000004 -0.000046
								CHANNELS 6 Xposition Yposition Zposition Zrotation Xrotation Yrotation
								JOINT l_handThumb1_JNT
								{
									OFFSET 3.629997 -2.130000 -0.779999
									CHANNELS 6 Xposition Yposition Zposition Zrotation Xrotation Yrotation
									JOINT l_handThumb2_JNT
									{
										OFFSET 3.551140 -2.240060 -2.118370
										CHANNELS 6 Xposition Yposition Zposition Zrotation Xrotation Yrotation
										JOINT l_handThumb3_JNT
										{
											OFFSET 2.159111 -0.963467 -1.116310
											CHANNELS 6 Xposition Yposition Zposition Zrotation Xrotation Yrotation
											End Site
											{
												OFFSET 0.000000 0.000000 0.099998
											}
										}
									}
								}
								JOINT l_handIndex1_JNT
								{
									OFFSET 10.514900 -2.197570 -0.041019
									CHANNELS 6 Xposition Yposition Zposition Zrotation Xrotation Yrotation
									JOINT l_handIndex2_JNT
									{
										OFFSET 2.751831 0.139054 -0.102867
										CHANNELS 6 Xposition Yposition Zposition Zrotation Xrotation Yrotation
										JOINT l_handIndex3_JNT
										{
											OFFSET 2.353012 0.090487 -0.073399
											CHANNELS 6 Xposition Yposition Zposition Zrotation Xrotation Yrotation
											End Site
											{
												OFFSET 0.000000 0.000000 0.099998
											}
										}
									}
								}
								JOINT l_handMiddle1_JNT
								{
									OFFSET 10.067101 -0.059573 0.139202
									CHANNELS 6 Xposition Yposition Zposition Zrotation Xrotation Yrotation
									JOINT l_handMiddle2_JNT
									{
										OFFSET 3.909027 0.119066 -0.288403
										CHANNELS 6 Xposition Yposition Zposition Zrotation Xrotation Yrotation
										JOINT l_handMiddle3_JNT
										{
											OFFSET 2.328400 0.059440 -0.019108
											CHANNELS 6 Xposition Yposition Zposition Zrotation Xrotation Yrotation
											End Site
											{
												OFFSET 0.000000 0.000000 0.099998
											}
										}
									}
								}
								JOINT l_handRing1_JNT
								{
									OFFSET 9.468109 1.809830 0.132240
									CHANNELS 6 Xposition Yposition Zposition Zrotation Xrotation Yrotation
									JOINT l_handRing2_JNT
									{
										OFFSET 3.281532 0.033937 -0.224052
										CHANNELS 6 Xposition Yposition Zposition Zrotation Xrotation Yrotation
										JOINT l_handRing3_JNT
										{
											OFFSET 2.245003 0.008389 -0.070213
											CHANNELS 6 Xposition Yposition Zposition Zrotation Xrotation Yrotation
											End Site
											{
												OFFSET 0.000000 0.000000 0.099998
											}
										}
									}
								}
								JOINT l_handPinky1_JNT
								{
									OFFSET 8.490768 3.584150 -0.077770
									CHANNELS 6 Xposition Yposition Zposition Zrotation Xrotation Yrotation
									JOINT l_handPinky2_JNT
									{
										OFFSET 2.532173 0.017040 -0.073074
										CHANNELS 6 Xposition Yposition Zposition Zrotation Xrotation Yrotation
										JOINT l_handPinky3_JNT
										{
											OFFSET 1.951210 -0.017009 0.025116
											CHANNELS 6 Xposition Yposition Zposition Zrotation Xrotation Yrotation
											End Site
											{
												OFFSET 0.000000 0.000000 0.099998
											}
										}
									}
								}
							}
						}
					}
				}
				JOINT r_shoulder_JNT
				{
					OFFSET -4.397820 1.485011 12.860600
					CHANNELS 6 Xposition Yposition Zposition Zrotation Xrotation Yrotation
					JOINT r_arm_JNT
					{
						OFFSET -8.757320 0.049050 -2.312000
						CHANNELS 6 Xposition Yposition Zposition Zrotation Xrotation Yrotation
						JOINT r_forearm_JNT
						{
							OFFSET -26.900000 -0.000010 0.000000
							CHANNELS 6 Xposition Yposition Zposition Zrotation Xrotation Yrotation
							JOINT r_hand_JNT
							{
								OFFSET -23.014900 0.000000 0.000000
								CHANNELS 6 Xposition Yposition Zposition Zrotation Xrotation Yrotation
								JOINT r_handThumb1_JNT
								{
									OFFSET -3.629997 -2.130000 -0.779999
									CHANNELS 6 Xposition Yposition Zposition Zrotation Xrotation Yrotation
									JOINT r_handThumb2_JNT
									{
										OFFSET -3.551201 -2.240060 -2.118000
										CHANNELS 6 Xposition Yposition Zposition Zrotation Xrotation Yrotation
										JOINT r_handThumb3_JNT
										{
											OFFSET -2.159103 -0.963467 -1.116001
											CHANNELS 6 Xposition Yposition Zposition Zrotation Xrotation Yrotation
											End Site
											{
												OFFSET 0.000000 0.000000 0.099998
											}
										}
									}
								}
								JOINT r_handIndex1_JNT
								{
									OFFSET -10.514900 -2.197560 -0.040997
									CHANNELS 6 Xposition Yposition Zposition Zrotation Xrotation Yrotation
									JOINT r_handIndex2_JNT
									{
										OFFSET -2.751801 0.139050 -0.102997
										CHANNELS 6 Xposition Yposition Zposition Zrotation Xrotation Yrotation
										JOINT r_handIndex3_JNT
										{
											OFFSET -2.352997 0.090490 -0.073006
											CHANNELS 6 Xposition Yposition Zposition Zrotation Xrotation Yrotation
											End Site
											{
												OFFSET 0.000000 0.000000 0.099998
											}
										}
									}
								}
								JOINT r_handMiddle1_JNT
								{
									OFFSET -10.067101 -0.059570 0.139999
									CHANNELS 6 Xposition Yposition Zposition Zrotation Xrotation Yrotation
									JOINT r_handMiddle2_JNT
									{
										OFFSET -3.909103 0.119070 -0.288998
										CHANNELS 6 Xposition Yposition Zposition Zrotation Xrotation Yrotation
										JOINT r_handMiddle3_JNT
										{
											OFFSET -2.328400 0.059440 -0.019001
											CHANNELS 6 Xposition Yposition Zposition Zrotation Xrotation Yrotation
											End Site
											{
												OFFSET 0.000000 0.000000 0.099998
											}
										}
									}
								}
								JOINT r_handRing1_JNT
								{
									OFFSET -9.468102 1.809830 0.133003
									CHANNELS 6 Xposition Yposition Zposition Zrotation Xrotation Yrotation
									JOINT r_handRing2_JNT
									{
										OFFSET -3.281601 0.033939 -0.224995
										CHANNELS 6 Xposition Yposition Zposition Zrotation Xrotation Yrotation
										JOINT r_handRing3_JNT
										{
											OFFSET -2.245003 0.008390 -0.070000
											CHANNELS 6 Xposition Yposition Zposition Zrotation Xrotation Yrotation
											End Site
											{
												OFFSET 0.000000 0.000000 0.099998
											}
										}
									}
								}
								JOINT r_handPinky1_JNT
								{
									OFFSET -8.490799 3.584149 -0.076996
									CHANNELS 6 Xposition Yposition Zposition Zrotation Xrotation Yrotation
									JOINT r_handPinky2_JNT
									{
										OFFSET -2.532204 0.017040 -0.074005
										CHANNELS 6 Xposition Yposition Zposition Zrotation Xrotation Yrotation
										JOINT r_handPinky3_JNT
										{
											OFFSET -1.951202 -0.017010 0.026001
											CHANNELS 6 Xposition Yposition Zposition Zrotation Xrotation Yrotation
											End Site
											{
												OFFSET 0.000000 0.000000 0.099998
											}
										}
									}
								}
							}
						}
					}
				}
			}
		}
	}
	JOINT l_upleg_JNT
	{
		OFFSET 10.061400 0.706233 -5.185750
		CHANNELS 6 Xposition Yposition Zposition Zrotation Xrotation Yrotation
		JOINT l_leg_JNT
		{
			OFFSET -0.348572 0.819165 -45.582401
			CHANNELS 6 Xposition Yposition Zposition Zrotation Xrotation Yrotation
			JOINT l_foot_JNT
			{
				OFFSET 0.349145 1.708487 -42.332497
				CHANNELS 6 Xposition Yposition Zposition Zrotation Xrotation Yrotation
				JOINT l_toebase_JNT
				{
					OFFSET 0.070271 -12.888700 -8.126663
					CHANNELS 6 Xposition Yposition Zposition Zrotation Xrotation Yrotation
					End Site
					{
						OFFSET 0.000000 0.000000 0.099998
					}
				}
			}
		}
	}
	JOINT r_upleg_JNT
	{
		OFFSET -10.061000 0.706233 -5.185770
		CHANNELS 6 Xposition Yposition Zposition Zrotation Xrotation Yrotation
		JOINT r_leg_JNT
		{
			OFFSET 0.348580 0.819162 -45.582405
			CHANNELS 6 Xposition Yposition Zposition Zrotation Xrotation Yrotation
			JOINT r_foot_JNT
			{
				OFFSET -0.349180 1.708487 -42.332504
				CHANNELS 6 Xposition Yposition Zposition Zrotation Xrotation Yrotation
				JOINT r_toebase_JNT
				{
					OFFSET -0.070200 -12.888700 -8.126663
					CHANNELS 6 Xposition Yposition Zposition Zrotation Xrotation Yrotation
					End Site
					{
						OFFSET 0.000000 0.000000 0.099998
					}
				}
			}
		}
	}
}
MOTION
Frames: 4
Frame Time: 0.041667
0.198871 0.108219 100.130043 9.610512 7.700354 1.098416 -0.000424 -2.543417 9.319827 0.039625 0.000397 -2.616141 -0.000000 0.000045 10.873103 -0.000000 0.000002 -0.000000 0.000000 5.951153 12.426401 -4.171764 0.018480 -0.781046 0.000000 1.460483 13.979692 -4.635195 -4.103490 -6.055567 -0.000003 -2.091495 5.870193 -0.149388 6.820025 1.257792 4.399139 1.485012 12.861008 -0.000000 0.000002 -0.000003 8.757347 0.049050 -2.311980 -12.865800 -5.397117 62.495842 26.900093 -0.000009 -0.000051 -113.933013 -13.907353 9.068794 23.014795 -0.000010 -0.000045 -0.000001 -0.000001 -0.000001 3.630003 -2.130007 -0.780001 -22.207699 20.704837 4.106614 3.551123 -2.240064 -2.118362 0.000001 -0.000003 -0.000003 2.159117 -0.963476 -1.116291 1.465517 0.190582 14.822619 10.514908 -2.197575 -0.041028 -1.411460 6.799685 23.420054 2.751840 0.139052 -0.102867 -2.319607 8.582000 30.201584 2.353009 0.090478 -0.073402 -1.038537 5.872255 20.049178 10.067107 -0.059583 0.139203 -1.278928 5.249246 27.348885 3.909021 0.119061 -0.288390 -2.091386 6.580097 35.224546 2.328385 0.059430 -0.019093 -0.942875 4.545920 23.424501 9.468116 1.809829 0.132237 0.826777 -2.961549 31.159842 3.281526 0.033942 -0.224040 1.344752 -3.684033 40.084625 2.245000 0.008392 -0.070206 0.609864 -2.573286 26.702071 8.490776 3.584141 -0.077776 1.979211 -6.420335 34.237894 2.532173 0.017037 -0.073081 3.218351 -7.928153 44.132820 1.951217 -0.017006 0.025112 1.462740 -5.593145 29.314106 -4.397821 1.485012 12.860600 0.000000 0.000001 0.000003 -8.757312 0.049045 -2.312023 47.393617 -24.218855 -56.915847 -26.900015 -0.000008 -0.000002 78.905303 -9.288811 -11.275511 -23.014902 0.000012 0.000006 -0.000001 -0.000002 -0.000002 -3.629996 -2.129993 -0.779994 22.207703 20.704822 -4.106612 -3.551202 -2.240071 -2.118011 -0.000005 -0.000003 -0.000003 -2.159101 -0.963478 -1.115984 1.353348 -0.162122 -13.664704 -10.514882 -2.197558 -0.040980 1.199882 6.295422 -21.574822 -2.751806 0.139035 -0.102999 1.974942 7.967986 -27.810514 -2.352987 0.090482 -0.072998 0.882709 5.430396 -18.472919 -10.067097 -0.059565 0.140003 1.089529 4.867216 -25.201569 -3.909114 0.119079 -0.288990 1.783846 6.125460 -32.451072 -2.328390 0.059435 -0.019004 0.804144 4.207908 -21.587614 -9.468106 1.809831 0.133015 -0.704572 -2.751202 -28.721400 -3.281616 0.033933 -0.224996 -1.149829 -3.439259 -36.945132 -2.244993 0.008393 -0.069997 -0.521701 -2.384338 -24.613360 -8.490786 3.584143 -0.076977 -1.689214 -5.972524 -31.543289 -2.532205 0.017039 -0.074010 -2.752477 -7.422475 -40.646309 -1.951191 -0.017006 0.026002 -1.248432 -5.189523 -27.011115 10.061400 0.706235 -5.185740 -3.933092 -0.714254 -19.517168 -0.348572 0.819167 -45.582409 0.561293 -1.281583 0.462237 0.349141 1.708496 -42.332497 -0.066952 14.450616 -2.169749 0.070270 -12.888706 -8.126665 -3.921601 -15.338090 -0.227406 -10.060999 0.706236 -5.185758 -5.607256 -11.645788 6.780311 0.348581 0.819166 -45.582409 0.851823 25.533038 -0.871105 -0.349180 1.708487 -42.332500 -0.321743 -2.017272 -1.685704 -0.070200 -12.888708 -8.126655 1.547061 -19.789985 0.269811 
0.198871 0.108219 100.130043 9.610512 7.700354 1.098416 -0.000424 -2.543417 9.319827 0.039625 0.000397 -2.616141 -0.000000 0.000045 10.873103 -0.000000 0.000002 -0.000000 0.000000 5.951153 12.426401 -4.171764 0.018480 -0.781046 0.000000 1.460483 13.979692 -4.635195 -4.103490 -6.055567 -0.000003 -2.091495 5.870193 -0.149388 6.820025 1.257792 4.399139 1.485012 12.861008 -0.000000 0.000002 -0.000003 8.757341 0.049050 -2.311979 -12.865708 -5.396940 62.495848 26.900110 -0.000011 -0.000049 -113.933013 -13.907350 9.068797 23.014803 0.000010 -0.000049 -0.000000 -0.000002 0.000003 3.629987 -2.129997 -0.780005 -22.207699 20.704837 4.106615 3.551146 -2.240058 -2.118360 0.000003 -0.000003 -0.000002 2.159109 -0.963465 -1.116310 1.465519 0.190581 14.822615 10.514901 -2.197563 -0.041025 -1.410945 6.799905 23.420000 2.751836 0.139062 -0.102864 -2.319896 8.581836 30.201625 2.353011 0.090475 -0.073390 -1.038540 5.872255 20.049180 10.067103 -0.059576 0.139203 -1.278928 5.249244 27.348885 3.909026 0.119055 -0.288379 -2.091387 6.580095 35.224542 2.328397 0.059446 -0.019103 -0.944404 4.545263 23.424629 9.468106 1.809826 0.132245 0.826778 -2.961548 31.159842 3.281527 0.033923 -0.224049 1.344306 -3.684400 40.084601 2.245000 0.008382 -0.070210 0.609863 -2.573287 26.702071 8.490772 3.584152 -0.077778 1.978886 -6.420555 34.237853 2.532176 0.017037 -0.073079 3.218179 -7.928321 44.132796 1.951210 -0.017004 0.025115 1.462740 -5.593145 29.314113 -4.397821 1.485012 12.860600 0.000000 0.000001 0.000003 -8.757312 0.049045 -2.312023 47.393617 -24.218855 -56.915847 -26.900015 -0.000008 -0.000002 78.905303 -9.288811 -11.275511 -23.014902 0.000012 0.000006 -0.000001 -0.000002 -0.000002 -3.629996 -2.129993 -0.779994 22.207703 20.704822 -4.106612 -3.551202 -2.240071 -2.118011 -0.000005 -0.000003 -0.000003 -2.159101 -0.963478 -1.115984 1.353348 -0.162122 -13.664704 -10.514882 -2.197558 -0.040980 1.199882 6.295422 -21.574822 -2.751806 0.139035 -0.102999 1.974942 7.967986 -27.810514 -2.352987 0.090482 -0.072998 0.882709 5.430396 -18.472919 -10.067097 -0.059565 0.140003 1.089529 4.867216 -25.201569 -3.909112 0.119079 -0.288988 1.783473 6.125698 -32.451035 -2.328391 0.059450 -0.019004 0.804147 4.207906 -21.587607 -9.468106 1.809831 0.133015 -0.704572 -2.751202 -28.721400 -3.281613 0.033933 -0.224988 -1.149277 -3.439675 -36.945094 -2.245000 0.008389 -0.069999 -0.523073 -2.383710 -24.613422 -8.490784 3.584144 -0.076980 -1.688417 -5.973009 -31.543207 -2.532205 0.017035 -0.074003 -2.752477 -7.422478 -40.646309 -1.951195 -0.017007 0.026005 -1.248433 -5.189524 -27.011110 10.061400 0.706235 -5.185740 -3.933092 -0.714254 -19.517168 -0.348572 0.819167 -45.582409 0.561293 -1.281583 0.462237 0.349141 1.708496 -42.332497 -0.066952 14.450616 -2.169749 0.070270 -12.888706 -8.126665 -3.921601 -15.338090 -0.227406 -10.060999 0.706236 -5.185758 -5.607256 -11.645788 6.780311 0.348581 0.819166 -45.582409 0.851823 25.533038 -0.871105 -0.349180 1.708487 -42.332500 -0.321743 -2.017272 -1.685704 -0.070200 -12.888708 -8.126655 1.547061 -19.789985 0.269811 
0.231670 0.121761 100.032036 9.567471 7.697832 1.124422 -0.000423 -2.543420 9.319801 0.000099 0.002123 -2.649081 0.000000 0.000045 10.873111 -0.000000 0.000003 -0.000000 0.000001 5.951157 12.426386 -4.182819 0.018864 -0.779750 -0.000001 1.460477 13.979649 -4.643182 -4.047385 -6.066875 -0.000001 -2.091498 5.870208 -0.161627 6.753819 1.374079 4.399139 1.485009 12.860977 0.055954 -0.000000 0.000001 8.757342 0.049053 -2.311944 -14.585782 -4.475500 62.338740 26.900122 -0.000011 -0.000048 -114.712016 -11.186258 7.179461 23.014797 0.000008 -0.000044 -0.000004 -0.000008 0.000001 3.630002 -2.129990 -0.779997 -22.207708 20.704832 4.106610 3.551137 -2.240072 -2.118361 0.000005 -0.000002 -0.000004 2.159101 -0.963467 -1.116298 1.464987 0.190445 14.820814 10.514895 -2.197558 -0.041023 -1.409236 6.799676 23.416836 2.751836 0.139037 -0.102859 -2.319705 8.580636 30.197786 2.353014 0.090491 -0.073394 -1.036610 5.872151 20.046506 10.067114 -0.059571 0.139204 -1.279439 5.248219 27.345557 3.909028 0.119067 -0.288399 -2.091687 6.578813 35.220130 2.328396 0.059444 -0.019093 -0.944717 4.544488 23.421677 9.468112 1.809834 0.132241 0.826402 -2.961323 31.155945 3.281533 0.033935 -0.224039 1.344617 -3.683475 40.079536 2.245002 0.008381 -0.070213 0.607298 -2.574209 26.698567 8.490780 3.584157 -0.077771 1.979323 -6.419241 34.233659 2.532167 0.017035 -0.073097 3.218085 -7.926892 44.127291 1.951210 -0.017004 0.025114 1.463466 -5.591897 29.310510 -4.397821 1.485008 12.860573 0.055953 -0.000000 0.000003 -8.757315 0.049050 -2.312013 49.469417 -22.987249 -56.132953 -26.900021 0.000000 -0.000006 79.687899 -7.592723 -9.093126 -23.014906 -0.000004 0.000005 0.000001 -0.000015 0.000003 -3.629997 -2.129995 -0.780000 22.207710 20.704824 -4.106618 -3.551193 -2.240051 -2.117999 0.000003 -0.000004 0.000001 -2.159101 -0.963464 -1.116006 1.353909 -0.162256 -13.664503 -10.514889 -2.197561 -0.040994 1.200455 6.295123 -21.574696 -2.751805 0.139037 -0.102991 1.974856 7.967915 -27.810208 -2.352994 0.090498 -0.073004 0.883511 5.430053 -18.472796 -10.067095 -0.059560 0.140002 1.089485 4.867181 -25.201272 -3.909115 0.119061 -0.288987 1.784143 6.125186 -32.450714 -2.328381 0.059435 -0.018977 0.802281 4.208582 -21.587175 -9.468108 1.809827 0.133008 -0.705514 -2.750646 -28.721055 -3.281609 0.033962 -0.225000 -1.149234 -3.439655 -36.944698 -2.244998 0.008388 -0.069998 -0.521674 -2.384313 -24.613068 -8.490786 3.584150 -0.076984 -1.688337 -5.972960 -31.542804 -2.532202 0.017046 -0.074000 -2.752145 -7.422636 -40.645776 -1.951205 -0.017020 0.026012 -1.248379 -5.189476 -27.010808 10.061403 0.706233 -5.185760 -3.875536 -0.709811 -19.534469 -0.348572 0.819165 -45.582409 0.571144 -1.281517 0.462395 0.349144 1.708495 -42.332478 -0.053301 14.450336 -2.175601 0.070267 -12.888701 -8.126666 -3.952276 -16.270714 -0.327564 -10.061000 0.706233 -5.185781 -5.554071 -11.879488 6.794526 0.348581 0.819163 -45.582394 0.869443 26.024518 -0.885342 -0.349182 1.708489 -42.332500 -0.244650 -2.279631 -1.703386 -0.070203 -12.888706 -8.126655 1.548089 -19.781290 0.269921 
0.262051 0.133289 99.944244 9.520364 7.695793 1.152750 -0.000424 -2.543429 9.319806 0.056003 -0.000289 -2.683431 0.000001 0.000046 10.873111 -0.000000 0.000003 -0.000000 -0.000000 5.951168 12.426390 -4.195707 0.018992 -0.778691 0.000000 1.460478 13.979683 -4.647820 -3.988702 -6.075089 -0.000000 -2.091491 5.870184 -0.067648 6.684439 1.474309 4.399138 1.485008 12.860981 -0.000000 -0.000001 -0.000004 8.757349 0.049057 -2.311982 -15.951391 -3.729018 62.232592 26.900091 -0.000007 -0.000042 -115.250017 -8.985498 5.703889 23.014793 0.000001 -0.000035 -0.000002 -0.000002 0.000001 3.629996 -2.130005 -0.780002 -22.207698 20.704837 4.106618 3.551140 -2.240043 -2.118379 0.000009 0.000000 -0.000002 2.159095 -0.963459 -1.116317 1.466012 0.190720 14.818816 10.514893 -2.197573 -0.041017 -1.412122 6.797431 23.414122 2.751837 0.139070 -0.102863 -2.318268 8.580090 30.193565 2.353012 0.090490 -0.073401 -1.040346 5.869948 20.044218 10.067103 -0.059569 0.139196 -1.277154 5.248575 27.341679 3.909020 0.119070 -0.288392 -2.090385 6.578577 35.215349 2.328403 0.059426 -0.019094 -0.945009 4.543683 23.418613 9.468117 1.809834 0.132239 0.826006 -2.961084 31.151728 3.281526 0.033941 -0.224032 1.343572 -3.683670 40.074199 2.244993 0.008383 -0.070211 0.608135 -2.573386 26.695106 8.490782 3.584152 -0.077771 1.977723 -6.419220 34.228936 2.532179 0.017041 -0.073072 3.216501 -7.926791 44.121284 1.951216 -0.017005 0.025115 1.461818 -5.591938 29.306491 -4.397821 1.485006 12.860573 0.000000 -0.000001 0.000000 -8.757314 0.049047 -2.312021 51.132890 -21.976311 -55.550253 -26.900002 -0.000002 0.000005 80.231705 -6.222216 -7.382065 -23.014904 -0.000007 -0.000000 -0.000001 0.000000 0.000003 -3.629998 -2.129999 -0.780006 22.207711 20.704820 -4.106612 -3.551201 -2.240052 -2.118010 -0.000000 0.000001 -0.000002 -2.159096 -0.963464 -1.116013 1.353910 -0.162252 -13.664806 -10.514893 -2.197567 -0.040989 1.199924 6.295465 -21.575033 -2.751805 0.139034 -0.102996 1.976416 7.967289 -27.810915 -2.353001 0.090483 -0.073012 0.884414 5.429860 -18.473177 -10.067108 -0.059564 0.139997 1.089552 4.867241 -25.201672 -3.909102 0.119068 -0.289003 1.783890 6.125485 -32.451281 -2.328387 0.059439 -0.018999 0.804159 4.207936 -21.587714 -9.468097 1.809829 0.133005 -0.704591 -2.751221 -28.721605 -3.281610 0.033943 -0.224994 -1.148224 -3.440505 -36.945333 -2.245000 0.008401 -0.069994 -0.518974 -2.385597 -24.613449 -8.490785 3.584151 -0.076986 -1.688862 -5.972793 -31.543449 -2.532204 0.017038 -0.073997 -2.752328 -7.422694 -40.646582 -1.951205 -0.017017 0.026002 -1.248465 -5.189544 -27.011312 10.061400 0.706223 -5.185753 -3.811238 -0.706089 -19.554017 -0.348571 0.819160 -45.582409 0.552704 -1.281612 0.462270 0.349140 1.708497 -42.332489 -0.054509 14.451289 -2.175540 0.070273 -12.888706 -8.126674 -3.982344 -17.121862 -0.420024 -10.061001 0.706225 -5.185765 -5.498572 -12.082574 6.803771 0.348578 0.819165 -45.582397 0.856188 26.451924 -0.885174 -0.349177 1.708491 -42.332508 -0.269161 -2.508685 -1.722808 -0.070199 -12.888706 -8.126655 1.547520 -19.769592 0.269494 
